<?xml version="1.0" standalone="no"?>
<!DOCTYPE svg PUBLIC "-//W3C//DTD SVG 20010904//EN"
 "http://www.w3.org/TR/2001/REC-SVG-20010904/DTD/svg10.dtd">
<svg version="1.0" xmlns="http://www.w3.org/2000/svg"
 width="682.000000pt" height="442.000000pt" viewBox="0 0 682.000000 442.000000"
 preserveAspectRatio="xMidYMid meet">

<g transform="translate(0.000000,442.000000) scale(0.100000,-0.100000)"
fill="#c41230" stroke="none">
<path d="M445 4397 c-78 -20 -169 -74 -232 -137 -247 -248 -256 -682 -18 -916
159 -156 380 -188 585 -84 77 39 106 39 128 0 36 -64 42 -41 42 170 0 163 -3
200 -14 200 -8 0 -18 -21 -25 -59 -51 -261 -330 -427 -487 -289 -90 79 -119
206 -119 518 0 282 20 388 91 491 83 120 260 109 379 -24 52 -57 108 -160 126
-231 8 -34 16 -46 30 -46 18 0 19 11 19 195 0 180 -1 195 -18 195 -9 0 -22
-10 -27 -22 -16 -36 -61 -34 -166 8 -107 42 -209 52 -294 31z"/>
<path d="M5185 4296 c-71 -32 -94 -105 -53 -166 43 -63 125 -71 178 -17 25 25
30 39 30 78 0 40 -5 53 -31 78 -17 17 -36 31 -42 31 -7 0 -21 2 -32 5 -11 3
-33 -1 -50 -9z"/>
<path d="M2145 3962 c-21 -11 -68 -17 -162 -20 -104 -4 -133 -8 -133 -18 0
-10 15 -14 55 -14 l55 0 0 -325 0 -325 -55 0 c-42 0 -55 -3 -55 -15 0 -13 34
-15 245 -15 211 0 245 2 245 15 0 12 -15 15 -75 15 l-75 0 0 244 c0 189 3 253
15 285 19 56 46 92 84 114 l31 18 -16 -34 c-21 -44 -12 -101 22 -132 64 -59
180 -21 197 64 9 42 -12 100 -44 123 -80 59 -238 6 -280 -94 -14 -32 -14 -31
-19 49 l-5 81 -30 -16z"/>
<path d="M2850 3962 c-22 -10 -84 -17 -167 -20 -104 -4 -133 -8 -133 -18 0
-10 15 -14 55 -14 l55 0 0 -325 0 -325 -55 0 c-42 0 -55 -3 -55 -15 0 -13 31
-15 215 -15 184 0 215 2 215 15 0 11 -12 15 -45 15 l-45 0 0 238 c0 208 3 242
19 277 36 79 118 135 177 121 13 -4 33 -21 44 -39 19 -30 20 -51 20 -314 l0
-283 -45 0 c-33 0 -45 -4 -45 -15 0 -13 31 -15 215 -15 184 0 215 2 215 15 0
11 -13 15 -54 15 l-55 0 -3 273 c-3 270 -3 273 -29 322 -32 64 -86 95 -173
102 -96 8 -165 -16 -231 -80 l-54 -52 -3 76 -3 76 -35 -15z"/>
<path d="M5300 3962 c-22 -10 -84 -17 -167 -20 -104 -4 -133 -8 -133 -18 0
-10 15 -14 55 -14 l55 0 0 -325 0 -325 -55 0 c-42 0 -55 -3 -55 -15 0 -13 32
-15 225 -15 193 0 225 2 225 15 0 12 -13 15 -55 15 l-55 0 -2 358 -3 358 -35
-14z"/>
<path d="M4781 3939 l-43 -30 -46 21 c-64 31 -175 38 -242 16 -125 -41 -183
-107 -188 -215 -3 -79 19 -127 85 -177 l43 -33 -32 -6 c-17 -4 -50 -26 -73
-50 -37 -37 -44 -51 -50 -98 -11 -84 12 -143 68 -177 l27 -17 -48 -30 c-101
-63 -110 -185 -19 -265 51 -45 127 -71 222 -76 252 -13 418 141 403 374 -6 92
-35 141 -103 174 -42 20 -65 23 -243 27 -223 5 -237 6 -246 29 -10 27 19 61
69 80 41 15 54 16 111 5 185 -37 356 74 354 230 -1 41 -22 104 -44 128 -22 24
-20 38 9 66 33 34 46 32 32 -5 -25 -65 30 -122 97 -100 64 21 72 105 12 141
-48 29 -105 25 -155 -12z m-169 -39 c23 -29 31 -94 26 -215 -5 -112 -19 -148
-64 -165 -36 -14 -83 -1 -102 28 -13 20 -18 55 -20 157 -4 145 8 197 50 215
34 14 90 4 110 -20z m113 -740 c73 -12 105 -42 105 -97 0 -113 -123 -216 -272
-229 -104 -10 -187 24 -236 96 -34 49 -28 137 12 198 l29 42 151 0 c83 0 178
-4 211 -10z"/>
<path d="M1263 3945 c-66 -18 -130 -60 -149 -96 -18 -36 -18 -99 1 -126 23
-32 77 -47 120 -33 43 14 65 44 65 88 0 27 -8 42 -41 71 -32 30 -38 40 -27 49
23 19 109 33 157 26 92 -14 111 -46 111 -190 l0 -93 -42 -5 c-24 -2 -86 -9
-138 -15 -202 -22 -281 -83 -281 -216 0 -80 31 -129 111 -171 54 -29 220 -27
277 3 23 13 50 33 60 46 l17 24 21 -31 c27 -41 79 -66 137 -66 94 0 159 46
173 124 6 29 4 36 -9 36 -9 0 -16 -7 -16 -15 0 -28 -30 -75 -48 -75 -39 0 -42
16 -42 250 0 128 -5 242 -11 263 -16 57 -71 113 -137 138 -75 28 -234 35 -309
14z m237 -442 c0 -116 -11 -163 -50 -206 -25 -28 -34 -32 -80 -31 -43 0 -56 5
-71 25 -45 58 -52 203 -13 256 23 31 86 50 167 52 l47 1 0 -97z"/>
<path d="M3733 3941 c-182 -63 -288 -267 -239 -461 31 -122 107 -206 225 -251
80 -30 214 -24 287 14 61 31 109 83 140 152 36 82 39 95 15 95 -12 0 -21 -6
-21 -16 0 -33 -53 -124 -94 -162 -69 -64 -166 -80 -237 -40 -59 33 -73 71 -77
221 l-4 127 221 0 221 0 0 30 c0 62 -41 142 -104 206 -98 98 -212 127 -333 85z
m160 -40 c25 -24 36 -80 37 -173 l0 -78 -100 0 -100 0 0 98 c0 106 17 153 63
172 29 12 77 3 100 -19z"/>
<path d="M5703 3946 c-257 -84 -343 -443 -152 -635 63 -63 136 -94 235 -99
109 -6 178 15 244 75 68 61 135 203 96 203 -9 0 -19 -8 -22 -17 -12 -40 -47
-108 -70 -139 -59 -77 -195 -108 -265 -61 -56 37 -73 84 -77 225 l-4 122 226
0 227 0 -7 38 c-18 106 -101 219 -199 269 -61 32 -168 40 -232 19z m157 -52
c23 -23 25 -32 28 -134 l4 -110 -102 0 -103 0 5 105 c4 85 9 111 25 133 35 47
97 49 143 6z"/>
<path d="M2340 2968 c-28 -14 -61 -18 -167 -18 -126 0 -133 -1 -133 -20 0 -18
7 -20 55 -20 l55 0 0 -535 0 -535 -55 0 c-48 0 -55 -2 -55 -20 0 -19 7 -20
225 -20 218 0 225 1 225 20 0 18 -7 20 -55 20 l-55 0 -2 573 -3 572 -35 -17z"/>
<path d="M2827 2973 c-15 -15 -41 -19 -162 -21 -135 -3 -145 -5 -145 -23 0
-16 7 -19 55 -19 l55 0 0 -535 0 -535 -55 0 c-48 0 -55 -2 -55 -20 0 -19 7
-20 225 -20 218 0 225 1 225 20 0 18 -7 20 -55 20 l-55 0 0 575 c0 316 -4 575
-8 575 -4 0 -16 -8 -25 -17z"/>
<path d="M10 2930 c0 -18 7 -20 60 -20 l61 0 -3 -510 c-3 -503 -3 -510 -24
-530 -12 -12 -39 -24 -62 -27 -32 -4 -40 -9 -39 -24 1 -18 12 -19 159 -19 151
0 158 1 158 20 0 17 -7 20 -43 20 -52 0 -83 25 -92 72 -3 18 -4 243 -3 501 l3
467 190 -540 c172 -489 191 -540 211 -540 12 0 25 8 29 18 4 9 87 247 184 527
98 281 181 517 184 525 3 8 6 -220 6 -507 l1 -523 -70 0 c-63 0 -70 -2 -70
-20 0 -19 7 -20 261 -20 243 0 260 1 257 18 -3 14 -16 18 -66 20 l-62 3 0 534
0 535 66 0 c57 0 65 2 62 18 -3 15 -22 17 -199 20 l-196 2 -128 -367 c-70
-203 -132 -379 -137 -393 -11 -27 -7 -36 -197 518 l-83 242 -209 0 c-202 0
-209 -1 -209 -20z"/>
<path d="M4021 2541 c-19 -12 -57 -17 -168 -20 -114 -2 -143 -6 -143 -17 0
-10 15 -14 55 -14 l55 0 0 -325 0 -325 -55 0 c-48 0 -55 -2 -55 -20 0 -19 7
-20 220 -20 213 0 220 1 220 20 0 17 -7 20 -51 20 l-50 0 3 243 3 244 30 49
c57 91 149 123 199 69 31 -33 36 -81 36 -367 l0 -238 -50 0 c-43 0 -50 -3 -50
-20 0 -19 7 -20 215 -20 208 0 215 1 215 20 0 18 -7 20 -54 20 l-55 0 -3 278
-3 277 -27 47 c-39 65 -97 92 -199 93 -65 0 -85 -5 -135 -30 -36 -19 -71 -47
-91 -73 l-32 -43 -3 84 -3 85 -24 -17z"/>
<path d="M1640 2531 c-107 -23 -204 -102 -256 -206 -27 -55 -29 -69 -29 -170
0 -93 3 -118 23 -159 38 -83 85 -132 169 -173 70 -34 82 -37 162 -37 94 0 164
24 228 78 33 28 103 155 103 187 0 29 -29 22 -36 -8 -20 -83 -92 -173 -159
-199 -64 -24 -156 -16 -191 17 -43 39 -56 84 -62 212 l-5 117 228 0 228 0 -7
43 c-17 107 -104 225 -201 272 -56 28 -137 39 -195 26z m121 -57 c22 -23 24
-35 27 -135 l4 -109 -102 0 -103 0 5 98 c7 135 28 171 104 172 31 0 46 -6 65
-26z"/>
<path d="M3270 2534 c-233 -45 -370 -262 -304 -484 81 -272 444 -359 648 -154
90 89 128 232 96 363 -26 110 -125 216 -239 256 -47 16 -159 27 -201 19z m136
-50 c55 -37 59 -57 59 -324 0 -212 -2 -249 -17 -276 -24 -45 -60 -64 -115 -64
-55 0 -82 18 -109 70 -17 31 -19 60 -19 265 0 249 5 281 54 322 32 28 109 31
147 7z"/>
<path d="M10 1535 c0 -12 13 -15 60 -15 l60 0 0 -378 c0 -409 5 -463 50 -552
92 -182 364 -259 602 -170 67 25 129 77 164 136 50 85 54 121 54 504 0 213 4
370 10 392 13 45 43 68 87 68 23 0 33 5 33 15 0 13 -25 15 -165 15 -140 0
-165 -2 -165 -15 0 -11 11 -15 36 -15 20 0 51 -7 69 -16 53 -25 57 -63 53
-474 -4 -397 -6 -409 -75 -490 -53 -61 -120 -90 -212 -90 -99 0 -148 16 -197
65 -77 77 -78 83 -82 573 l-3 432 65 0 c52 0 66 3 66 15 0 13 -35 15 -255 15
-220 0 -255 -2 -255 -15z"/>
<path d="M2189 1475 c-27 -14 -59 -69 -59 -99 0 -35 30 -85 59 -100 51 -27 98
-21 137 18 28 28 34 41 34 78 0 50 -18 82 -60 103 -36 19 -77 19 -111 0z"/>
<path d="M5305 1481 c-28 -12 -54 -43 -64 -77 -26 -95 78 -176 167 -130 52 27
72 105 43 160 -24 44 -96 67 -146 47z"/>
<path d="M5837 1415 c-14 -138 -116 -264 -229 -283 -29 -5 -44 -13 -46 -25 -3
-14 4 -17 42 -17 l46 0 0 -262 c0 -159 4 -279 11 -302 30 -109 133 -159 253
-124 51 15 147 105 125 118 -9 6 -21 0 -39 -20 -34 -40 -72 -48 -99 -21 -20
20 -21 30 -21 316 l0 295 104 0 103 0 155 -359 155 -359 -13 -78 c-18 -105
-40 -177 -62 -204 l-19 -23 0 47 c0 57 -30 94 -85 102 -93 16 -156 -72 -113
-156 32 -61 138 -81 201 -38 50 34 71 83 109 245 36 156 73 255 214 573 94
211 112 239 152 247 21 4 29 11 27 22 -3 14 -23 16 -131 19 -122 2 -127 2
-127 -18 0 -16 6 -20 35 -20 49 0 78 -31 70 -73 -7 -34 -122 -317 -133 -329
-4 -4 -48 85 -98 198 l-91 204 53 0 c47 0 54 2 54 20 0 20 -7 20 -280 20
l-280 0 0 170 c0 159 -1 170 -19 170 -15 0 -19 -10 -24 -55z"/>
<path d="M1360 1148 c-28 -14 -61 -18 -167 -18 -126 0 -133 -1 -133 -20 0 -18
7 -20 55 -20 l55 0 0 -325 0 -325 -55 0 c-42 0 -55 -3 -55 -15 0 -13 31 -15
215 -15 184 0 215 2 215 15 0 11 -12 15 -45 15 l-45 0 0 238 c0 217 2 241 21
282 49 109 152 155 210 94 l24 -26 3 -294 3 -294 -46 0 c-33 0 -45 -4 -45 -15
0 -13 31 -15 215 -15 184 0 215 2 215 15 0 11 -13 15 -54 15 l-55 0 -3 278
c-3 261 -4 279 -24 317 -42 77 -96 105 -206 105 -55 0 -85 -6 -123 -24 -60
-28 -111 -69 -122 -99 -6 -15 -10 4 -13 63 l-5 85 -35 -17z"/>
<path d="M2315 1145 c-20 -10 -72 -14 -162 -15 -126 0 -133 -1 -133 -20 0 -18
7 -20 55 -20 l55 0 0 -325 0 -325 -55 0 c-42 0 -55 -3 -55 -15 0 -13 32 -15
225 -15 193 0 225 2 225 15 0 12 -13 15 -55 15 l-55 0 0 360 c0 198 -3 360 -7
359 -5 0 -21 -7 -38 -14z"/>
<path d="M4140 1143 c-20 -7 -91 -12 -162 -12 -121 -1 -128 -2 -128 -21 0 -18
7 -20 55 -20 l55 0 0 -325 0 -325 -55 0 c-42 0 -55 -3 -55 -15 0 -13 34 -15
245 -15 211 0 245 2 245 15 0 12 -15 15 -76 15 l-75 0 3 263 c3 249 4 264 25
304 13 23 37 53 55 66 51 37 65 43 43 18 -15 -17 -20 -37 -19 -74 0 -43 5 -54
32 -79 53 -46 151 -31 183 29 31 57 9 142 -43 169 -37 19 -115 17 -164 -5 -37
-17 -112 -91 -116 -115 -1 -6 -4 23 -7 64 l-6 75 -35 -12z"/>
<path d="M5420 1143 c-19 -7 -92 -12 -162 -12 -121 -1 -128 -2 -128 -21 0 -18
7 -20 55 -20 l55 0 0 -325 0 -325 -55 0 c-42 0 -55 -3 -55 -15 0 -13 32 -15
225 -15 193 0 225 2 225 15 0 12 -13 15 -60 15 l-60 0 -2 358 -3 357 -35 -12z"/>
<path d="M3420 1131 c-78 -24 -147 -76 -193 -144 -54 -80 -70 -143 -65 -251 4
-77 9 -100 35 -152 37 -72 95 -127 172 -163 48 -22 70 -26 151 -26 84 0 102 3
152 28 84 41 156 136 175 228 8 39 -24 41 -33 2 -19 -80 -80 -160 -149 -195
-51 -27 -137 -29 -182 -5 -56 30 -75 84 -81 225 l-5 122 228 0 227 0 -7 43
c-18 110 -96 216 -198 267 -51 25 -71 30 -131 29 -39 0 -82 -4 -96 -8z m124
-31 c42 -16 56 -57 56 -170 l0 -100 -100 0 -100 0 0 78 c1 101 13 152 45 180
28 24 59 28 99 12z"/>
<path d="M4705 1126 c-88 -39 -145 -130 -144 -231 1 -73 15 -115 53 -155 39
-42 82 -58 216 -80 136 -23 164 -39 168 -96 8 -116 -140 -179 -255 -108 -57
36 -106 98 -130 164 -12 34 -23 50 -35 50 -16 0 -18 -13 -18 -140 0 -133 1
-140 20 -140 11 0 20 5 20 10 0 6 12 15 28 21 21 8 45 6 109 -12 128 -34 216
-15 290 63 96 100 99 290 5 356 -43 31 -69 39 -194 61 -62 11 -125 24 -141 30
-77 30 -53 146 36 180 105 40 224 -26 275 -151 8 -21 21 -38 29 -38 10 0 13
24 13 110 0 93 -3 112 -16 117 -10 4 -20 0 -26 -10 -11 -21 -48 -21 -112 -2
-60 18 -151 19 -191 1z"/>
<path d="M2420 1110 c0 -16 7 -20 38 -20 l37 0 150 -348 c136 -315 153 -347
175 -350 24 -2 31 12 139 270 63 150 125 294 137 319 31 62 72 109 95 109 12
0 19 7 19 20 0 20 -5 20 -127 18 -112 -3 -128 -5 -131 -20 -3 -15 4 -18 36
-18 54 0 77 -26 68 -79 -7 -44 -126 -334 -134 -327 -5 5 -182 397 -182 403 0
1 20 3 45 3 38 0 45 3 45 20 0 19 -7 20 -205 20 -198 0 -205 -1 -205 -20z"/>
</g>
</svg>
